<svg xmlns="http://www.w3.org/2000/svg" width="16.83" height="48.615" viewBox="0 0 16.83 48.615"><g transform="translate(-520 -453)"><path d="M329.3,411.387v6.337h-1.714a2.242,2.242,0,0,0-1.688.619,2.547,2.547,0,0,0-.6,1.822v9.4q0,4.519-2.493,6.9t-7.324,2.389h-3.013v-6.333h.935a3.794,3.794,0,0,0,2.831-.987,3.938,3.938,0,0,0,.961-2.857v-8.311a7.446,7.446,0,0,1,.831-3.948,4.65,4.65,0,0,1,2.649-1.87,4.65,4.65,0,0,1-2.649-1.87,7.456,7.456,0,0,1-.831-3.948v-8.311a3.931,3.931,0,0,0-.961-2.857,3.778,3.778,0,0,0-2.831-.987h-.935v-6.337h3.013q4.831,0,7.324,2.389t2.493,6.9v9.406a2.529,2.529,0,0,0,.6,1.818,2.245,2.245,0,0,0,1.688.623Z" transform="translate(207.526 62.754)" fill="#030404"/></g></svg>