<svg xmlns="http://www.w3.org/2000/svg" width="313.422" height="41.295" viewBox="0 0 313.422 41.295"><g transform="translate(-372.245 -830)"><path d="M314.024,358.447q3.09,3.091,3.091,9.272v16h-8.1V368.965A7.571,7.571,0,0,0,307.635,364a4.839,4.839,0,0,0-3.922-1.636,5.779,5.779,0,0,0-4.519,1.844,7.949,7.949,0,0,0-1.662,5.48v14.025h-8.1V368.965q0-6.6-5.3-6.6a5.717,5.717,0,0,0-4.467,1.844,7.949,7.949,0,0,0-1.662,5.48v14.025h-8.1V355.772h7.74v3.221a10.226,10.226,0,0,1,3.818-2.7,12.851,12.851,0,0,1,4.961-.935,12.015,12.015,0,0,1,5.35,1.169,9.476,9.476,0,0,1,3.844,3.4,11.464,11.464,0,0,1,4.337-3.376,13.685,13.685,0,0,1,5.74-1.195A11.266,11.266,0,0,1,314.024,358.447Z" transform="translate(102.347 487.162)" fill="#030404"/><path d="M283.66,360.2a4.4,4.4,0,0,1,0-6.441,5.139,5.139,0,0,1,3.636-1.3,5.268,5.268,0,0,1,3.636,1.247,4,4,0,0,1,1.4,3.116,4.411,4.411,0,0,1-1.4,3.35A5.08,5.08,0,0,1,287.3,361.5,5.14,5.14,0,0,1,283.66,360.2Zm-.416,5.194h8.1v27.946h-8.1Z" transform="translate(143.489 477.536)" fill="#030404"/><path d="M286.1,353h8.1v38.542h-8.1Z" transform="translate(156.271 479.334)" fill="#030404"/><path d="M310.754,386.8a8.307,8.307,0,0,1-2.93,1.324,14.875,14.875,0,0,1-3.666.442q-4.987,0-7.709-2.545t-2.731-7.48V367.062H289.41v-6.233h4.307v-6.8h8.1v6.8h6.96v6.233h-6.96v11.376a3.834,3.834,0,0,0,.909,2.727,3.379,3.379,0,0,0,2.576.961,5.2,5.2,0,0,0,3.268-1.039Z" transform="translate(167.295 482.729)" fill="#030404"/><path d="M302.171,382.289a13.707,13.707,0,0,1-5.48-5.116,14.935,14.935,0,0,1,0-14.856,13.707,13.707,0,0,1,5.48-5.116,16.755,16.755,0,0,1,7.921-1.844,16.583,16.583,0,0,1,7.891,1.844,13.762,13.762,0,0,1,5.458,5.116,14.964,14.964,0,0,1,0,14.856,13.762,13.762,0,0,1-5.458,5.116,16.585,16.585,0,0,1-7.891,1.844A16.757,16.757,0,0,1,302.171,382.289Zm13.038-6.909a8.941,8.941,0,0,0,0-11.272,6.748,6.748,0,0,0-5.116-2.1,6.832,6.832,0,0,0-5.142,2.1,8.838,8.838,0,0,0,0,11.272,6.832,6.832,0,0,0,5.142,2.1A6.748,6.748,0,0,0,315.209,375.38Z" transform="translate(184.947 487.162)" fill="#030404"/><path d="M328.432,358.473q3.188,3.117,3.19,9.246v16h-8.1V368.965A7.262,7.262,0,0,0,322.064,364a5.324,5.324,0,0,0-4.2-1.636,6.465,6.465,0,0,0-4.887,1.9,7.87,7.87,0,0,0-1.818,5.636v13.817h-8.1V355.772h7.74v3.272a10.763,10.763,0,0,1,4-2.727,13.918,13.918,0,0,1,5.246-.961A11.514,11.514,0,0,1,328.432,358.473Z" transform="translate(212.707 487.162)" fill="#030404"/><path d="M340.12,358.473q3.188,3.117,3.19,9.246v16h-8.1V368.965A7.263,7.263,0,0,0,333.752,364a5.324,5.324,0,0,0-4.2-1.636,6.465,6.465,0,0,0-4.887,1.9,7.87,7.87,0,0,0-1.818,5.636v13.817h-8.1V355.772h7.74v3.272a10.762,10.762,0,0,1,4-2.727,13.917,13.917,0,0,1,5.246-.961A11.515,11.515,0,0,1,340.12,358.473Z" transform="translate(251.612 487.162)" fill="#030404"/><path d="M351.921,372.03H330.78a6.584,6.584,0,0,0,2.7,4.1,8.951,8.951,0,0,0,5.3,1.506,10.721,10.721,0,0,0,3.865-.649,9.374,9.374,0,0,0,3.143-2.052l4.311,4.675q-3.948,4.519-11.531,4.519a18.21,18.21,0,0,1-8.359-1.844,13.5,13.5,0,0,1-5.614-5.116,14.1,14.1,0,0,1-1.974-7.428,14.281,14.281,0,0,1,1.948-7.4,13.646,13.646,0,0,1,5.35-5.142,16.563,16.563,0,0,1,15.038-.078,12.89,12.89,0,0,1,5.22,5.064,15.1,15.1,0,0,1,1.9,7.662Q352.077,370,351.921,372.03Zm-18.959-8.986a6.635,6.635,0,0,0-2.286,4.26h13.765a6.7,6.7,0,0,0-2.286-4.233,6.831,6.831,0,0,0-4.571-1.584A6.978,6.978,0,0,0,332.962,363.044Z" transform="translate(277.855 487.162)" fill="#030404"/><path d="M351.258,386.8a8.33,8.33,0,0,1-2.935,1.324,14.839,14.839,0,0,1-3.662.442q-4.986,0-7.714-2.545t-2.727-7.48V367.062h-4.311v-6.233h4.311v-6.8h8.1v6.8h6.96v6.233h-6.96v11.376a3.815,3.815,0,0,0,.909,2.727,3.369,3.369,0,0,0,2.571.961,5.207,5.207,0,0,0,3.272-1.039Z" transform="translate(302.1 482.729)" fill="#030404"/><path d="M342.667,382.289a13.707,13.707,0,0,1-5.48-5.116,14.963,14.963,0,0,1,0-14.856,13.707,13.707,0,0,1,5.48-5.116,17.879,17.879,0,0,1,15.817,0,13.75,13.75,0,0,1,5.454,5.116,14.963,14.963,0,0,1,0,14.856,13.75,13.75,0,0,1-5.454,5.116,17.88,17.88,0,0,1-15.817,0ZM355.7,375.38a8.941,8.941,0,0,0,0-11.272,6.749,6.749,0,0,0-5.116-2.1,6.833,6.833,0,0,0-5.142,2.1,8.853,8.853,0,0,0,0,11.272,6.833,6.833,0,0,0,5.142,2.1A6.749,6.749,0,0,0,355.7,375.38Z" transform="translate(319.756 487.162)" fill="#030404"/></g></svg>