<svg xmlns="http://www.w3.org/2000/svg" width="16.83" height="48.615" viewBox="0 0 16.83 48.615"><g transform="translate(-520 -586)"><path d="M306.91,412.686a4.65,4.65,0,0,1-2.649,1.87,4.65,4.65,0,0,1,2.649,1.87,7.447,7.447,0,0,1,.831,3.948v8.311a3.939,3.939,0,0,0,.961,2.857,3.8,3.8,0,0,0,2.831.987h.935v6.333h-3.013q-4.831,0-7.324-2.389t-2.493-6.9v-9.4a2.547,2.547,0,0,0-.6-1.822,2.242,2.242,0,0,0-1.688-.619h-1.714v-6.337h1.714a2.245,2.245,0,0,0,1.688-.623,2.529,2.529,0,0,0,.6-1.818V399.54q0-4.513,2.493-6.9t7.324-2.389h3.013v6.337h-.935a3.778,3.778,0,0,0-2.831.987,3.932,3.932,0,0,0-.961,2.857v8.311A7.457,7.457,0,0,1,306.91,412.686Z" transform="translate(224.363 195.754)" fill="#030404"/></g></svg>