<svg xmlns="http://www.w3.org/2000/svg" width="89.707" height="48.615" viewBox="0 0 89.707 48.615"><g transform="translate(-484 -321)"><path d="M306.91,412.686a4.65,4.65,0,0,1-2.649,1.87,4.65,4.65,0,0,1,2.649,1.87,7.447,7.447,0,0,1,.831,3.948v8.311a3.939,3.939,0,0,0,.961,2.857,3.8,3.8,0,0,0,2.831.987h.935v6.333h-3.013q-4.831,0-7.324-2.389t-2.493-6.9v-9.4a2.547,2.547,0,0,0-.6-1.822,2.242,2.242,0,0,0-1.688-.619h-1.714v-6.337h1.714a2.245,2.245,0,0,0,1.688-.623,2.529,2.529,0,0,0,.6-1.818V399.54q0-4.513,2.493-6.9t7.324-2.389h3.013v6.337h-.935a3.778,3.778,0,0,0-2.831.987,3.932,3.932,0,0,0-.961,2.857v8.311A7.457,7.457,0,0,1,306.91,412.686Z" transform="translate(188.362 -69.246)" fill="#030404"/><path d="M344.672,395.677q3.091,3.091,3.091,9.268v16h-8.1V406.2a7.571,7.571,0,0,0-1.376-4.961,4.84,4.84,0,0,0-3.922-1.636,5.79,5.79,0,0,0-4.519,1.84,7.968,7.968,0,0,0-1.662,5.484v14.025h-8.1V406.2q0-6.6-5.3-6.6a5.728,5.728,0,0,0-4.467,1.84,7.967,7.967,0,0,0-1.662,5.484v14.025h-8.1V393h7.74v3.225a10.228,10.228,0,0,1,3.818-2.7,12.849,12.849,0,0,1,4.961-.935,12.015,12.015,0,0,1,5.35,1.169,9.465,9.465,0,0,1,3.844,3.4,11.453,11.453,0,0,1,4.337-3.372,13.685,13.685,0,0,1,5.74-1.195A11.265,11.265,0,0,1,344.672,395.677Z" transform="translate(204.699 -61.457)" fill="#030404"/><path d="M329.3,411.387v6.337h-1.714a2.242,2.242,0,0,0-1.688.619,2.547,2.547,0,0,0-.6,1.822v9.4q0,4.519-2.493,6.9t-7.324,2.389h-3.013v-6.333h.935a3.794,3.794,0,0,0,2.831-.987,3.938,3.938,0,0,0,.961-2.857v-8.311a7.446,7.446,0,0,1,.831-3.948,4.65,4.65,0,0,1,2.649-1.87,4.65,4.65,0,0,1-2.649-1.87,7.456,7.456,0,0,1-.831-3.948v-8.311a3.931,3.931,0,0,0-.961-2.857,3.778,3.778,0,0,0-2.831-.987h-.935v-6.337h3.013q4.831,0,7.324,2.389t2.493,6.9v9.406a2.529,2.529,0,0,0,.6,1.818,2.245,2.245,0,0,0,1.688.623Z" transform="translate(244.403 -69.246)" fill="#030404"/></g></svg>